<mxfile host="app.diagrams.net" agent="Mozilla/5.0 (Windows NT 10.0; Win64; x64) AppleWebKit/537.36 (KHTML, like Gecko) Chrome/132.0.0.0 Safari/537.36" version="26.0.4" pages="3">
  <diagram id="C5RBs43oDa-KdzZeNtuy" name="sp_user_register">
    <mxGraphModel grid="1" page="1" gridSize="10" guides="1" tooltips="1" connect="1" arrows="1" fold="1" pageScale="1" pageWidth="827" pageHeight="1169" math="0" shadow="0">
      <root>
        <mxCell id="WIyWlLk6GJQsqaUBKTNV-0" />
        <mxCell id="WIyWlLk6GJQsqaUBKTNV-1" parent="WIyWlLk6GJQsqaUBKTNV-0" />
        <mxCell id="-K-IWmo96tHVlK3cqagg-0" value="" style="ellipse;html=1;shape=startState;fillColor=#000000;strokeColor=#ff0000;" vertex="1" parent="WIyWlLk6GJQsqaUBKTNV-1">
          <mxGeometry x="142.5" y="30" width="30" height="30" as="geometry" />
        </mxCell>
        <mxCell id="-K-IWmo96tHVlK3cqagg-1" value="@ret = -1" style="html=1;whiteSpace=wrap;" vertex="1" parent="WIyWlLk6GJQsqaUBKTNV-1">
          <mxGeometry x="110" y="90" width="95" height="20" as="geometry" />
        </mxCell>
        <mxCell id="-K-IWmo96tHVlK3cqagg-2" value="" style="endArrow=classic;html=1;rounded=0;exitX=0.5;exitY=1;exitDx=0;exitDy=0;entryX=0.5;entryY=0;entryDx=0;entryDy=0;" edge="1" parent="WIyWlLk6GJQsqaUBKTNV-1" source="-K-IWmo96tHVlK3cqagg-0" target="-K-IWmo96tHVlK3cqagg-1">
          <mxGeometry width="50" height="50" relative="1" as="geometry">
            <mxPoint x="155" y="50" as="sourcePoint" />
            <mxPoint x="205" as="targetPoint" />
          </mxGeometry>
        </mxCell>
        <mxCell id="-K-IWmo96tHVlK3cqagg-3" value="fn_user_exists" style="shape=rhombus;perimeter=rhombusPerimeter;whiteSpace=wrap;html=1;align=center;" vertex="1" parent="WIyWlLk6GJQsqaUBKTNV-1">
          <mxGeometry x="100" y="140" width="115" height="60" as="geometry" />
        </mxCell>
        <mxCell id="-K-IWmo96tHVlK3cqagg-4" value="" style="endArrow=classic;html=1;rounded=0;exitX=0.5;exitY=1;exitDx=0;exitDy=0;entryX=0.5;entryY=0;entryDx=0;entryDy=0;" edge="1" parent="WIyWlLk6GJQsqaUBKTNV-1" source="-K-IWmo96tHVlK3cqagg-1" target="-K-IWmo96tHVlK3cqagg-3">
          <mxGeometry width="50" height="50" relative="1" as="geometry">
            <mxPoint x="168" y="70" as="sourcePoint" />
            <mxPoint x="168" y="100" as="targetPoint" />
          </mxGeometry>
        </mxCell>
        <mxCell id="-K-IWmo96tHVlK3cqagg-5" value="fn_mail_exists" style="shape=rhombus;perimeter=rhombusPerimeter;whiteSpace=wrap;html=1;align=center;" vertex="1" parent="WIyWlLk6GJQsqaUBKTNV-1">
          <mxGeometry x="270" y="140" width="115" height="60" as="geometry" />
        </mxCell>
        <mxCell id="-K-IWmo96tHVlK3cqagg-6" style="edgeStyle=none;curved=1;rounded=0;orthogonalLoop=1;jettySize=auto;html=1;entryX=0;entryY=0.5;entryDx=0;entryDy=0;fontSize=12;startSize=8;endSize=8;" edge="1" parent="WIyWlLk6GJQsqaUBKTNV-1">
          <mxGeometry relative="1" as="geometry">
            <mxPoint x="215" y="170" as="sourcePoint" />
            <mxPoint x="270" y="170" as="targetPoint" />
          </mxGeometry>
        </mxCell>
        <mxCell id="-K-IWmo96tHVlK3cqagg-9" value="fn_mail_isvalid" style="shape=rhombus;perimeter=rhombusPerimeter;whiteSpace=wrap;html=1;align=center;" vertex="1" parent="WIyWlLk6GJQsqaUBKTNV-1">
          <mxGeometry x="440" y="140" width="115" height="60" as="geometry" />
        </mxCell>
        <mxCell id="-K-IWmo96tHVlK3cqagg-10" style="edgeStyle=none;curved=1;rounded=0;orthogonalLoop=1;jettySize=auto;html=1;entryX=0;entryY=0.5;entryDx=0;entryDy=0;fontSize=12;startSize=8;endSize=8;" edge="1" parent="WIyWlLk6GJQsqaUBKTNV-1">
          <mxGeometry relative="1" as="geometry">
            <mxPoint x="385" y="170" as="sourcePoint" />
            <mxPoint x="440" y="170" as="targetPoint" />
          </mxGeometry>
        </mxCell>
        <mxCell id="-K-IWmo96tHVlK3cqagg-11" value="fn_pwd_checkpolicy" style="shape=rhombus;perimeter=rhombusPerimeter;whiteSpace=wrap;html=1;align=center;" vertex="1" parent="WIyWlLk6GJQsqaUBKTNV-1">
          <mxGeometry x="610" y="130" width="170" height="80" as="geometry" />
        </mxCell>
        <mxCell id="-K-IWmo96tHVlK3cqagg-13" value="&lt;span id=&quot;docs-internal-guid-7039932e-7fff-f9bc-8280-fbaf1240b976&quot;&gt;&lt;p style=&quot;line-height:1.38;margin-top:0pt;margin-bottom:0pt;&quot; dir=&quot;ltr&quot;&gt;&lt;span style=&quot;font-size: 11pt; font-family: Arial, sans-serif; background-color: transparent; font-variant-numeric: normal; font-variant-east-asian: normal; font-variant-alternates: normal; font-variant-position: normal; vertical-align: baseline; white-space-collapse: preserve;&quot;&gt;sp_wdev_user_insert&lt;/span&gt;&lt;/p&gt;&lt;/span&gt;" style="whiteSpace=wrap;html=1;align=center;" vertex="1" parent="WIyWlLk6GJQsqaUBKTNV-1">
          <mxGeometry x="592.5" y="260" width="205" height="40" as="geometry" />
        </mxCell>
        <mxCell id="-K-IWmo96tHVlK3cqagg-14" style="edgeStyle=none;curved=1;rounded=0;orthogonalLoop=1;jettySize=auto;html=1;entryX=0;entryY=0.5;entryDx=0;entryDy=0;fontSize=12;startSize=8;endSize=8;" edge="1" parent="WIyWlLk6GJQsqaUBKTNV-1">
          <mxGeometry relative="1" as="geometry">
            <mxPoint x="555" y="170" as="sourcePoint" />
            <mxPoint x="610" y="170" as="targetPoint" />
          </mxGeometry>
        </mxCell>
        <mxCell id="-K-IWmo96tHVlK3cqagg-15" style="edgeStyle=none;curved=1;rounded=0;orthogonalLoop=1;jettySize=auto;html=1;entryX=0.5;entryY=0;entryDx=0;entryDy=0;fontSize=12;startSize=8;endSize=8;exitX=0.5;exitY=1;exitDx=0;exitDy=0;" edge="1" parent="WIyWlLk6GJQsqaUBKTNV-1" source="-K-IWmo96tHVlK3cqagg-11" target="-K-IWmo96tHVlK3cqagg-13">
          <mxGeometry relative="1" as="geometry">
            <mxPoint x="667.5" y="230" as="sourcePoint" />
            <mxPoint x="722.5" y="230" as="targetPoint" />
          </mxGeometry>
        </mxCell>
        <mxCell id="-K-IWmo96tHVlK3cqagg-16" value="if @ret == -1" style="html=1;whiteSpace=wrap;" vertex="1" parent="WIyWlLk6GJQsqaUBKTNV-1">
          <mxGeometry x="647.5" y="220" width="95" height="20" as="geometry" />
        </mxCell>
        <mxCell id="-K-IWmo96tHVlK3cqagg-17" value="? @ret" style="shape=rhombus;perimeter=rhombusPerimeter;whiteSpace=wrap;html=1;align=center;" vertex="1" parent="WIyWlLk6GJQsqaUBKTNV-1">
          <mxGeometry x="380" y="250" width="115" height="60" as="geometry" />
        </mxCell>
        <mxCell id="-K-IWmo96tHVlK3cqagg-18" style="edgeStyle=none;curved=1;rounded=0;orthogonalLoop=1;jettySize=auto;html=1;entryX=1;entryY=0.5;entryDx=0;entryDy=0;fontSize=12;startSize=8;endSize=8;exitX=0;exitY=0.5;exitDx=0;exitDy=0;" edge="1" parent="WIyWlLk6GJQsqaUBKTNV-1" source="-K-IWmo96tHVlK3cqagg-13" target="-K-IWmo96tHVlK3cqagg-17">
          <mxGeometry relative="1" as="geometry">
            <mxPoint x="537.5" y="260" as="sourcePoint" />
            <mxPoint x="592.5" y="260" as="targetPoint" />
          </mxGeometry>
        </mxCell>
        <mxCell id="-K-IWmo96tHVlK3cqagg-27" value="&lt;span style=&quot;font-size: 14.6667px; white-space-collapse: preserve;&quot; id=&quot;docs-internal-guid-7039932e-7fff-f9bc-8280-fbaf1240b976&quot;&gt;&lt;p style=&quot;line-height:1.38;margin-top:0pt;margin-bottom:0pt;&quot; dir=&quot;ltr&quot;&gt;&lt;font face=&quot;Arial, sans-serif&quot;&gt;create user error message&lt;/font&gt;&lt;/p&gt;&lt;/span&gt;" style="whiteSpace=wrap;html=1;align=center;" vertex="1" parent="WIyWlLk6GJQsqaUBKTNV-1">
          <mxGeometry x="65" y="260" width="205" height="40" as="geometry" />
        </mxCell>
        <mxCell id="-K-IWmo96tHVlK3cqagg-28" style="edgeStyle=none;curved=1;rounded=0;orthogonalLoop=1;jettySize=auto;html=1;fontSize=12;startSize=8;endSize=8;exitX=0;exitY=0.5;exitDx=0;exitDy=0;" edge="1" parent="WIyWlLk6GJQsqaUBKTNV-1" source="-K-IWmo96tHVlK3cqagg-17">
          <mxGeometry relative="1" as="geometry">
            <mxPoint x="368" y="279.66" as="sourcePoint" />
            <mxPoint x="270" y="280" as="targetPoint" />
          </mxGeometry>
        </mxCell>
        <mxCell id="-K-IWmo96tHVlK3cqagg-30" value="@ret != 0" style="html=1;whiteSpace=wrap;" vertex="1" parent="WIyWlLk6GJQsqaUBKTNV-1">
          <mxGeometry x="285" y="250" width="95" height="20" as="geometry" />
        </mxCell>
        <mxCell id="-K-IWmo96tHVlK3cqagg-32" style="edgeStyle=none;curved=1;rounded=0;orthogonalLoop=1;jettySize=auto;html=1;entryX=0.5;entryY=0;entryDx=0;entryDy=0;fontSize=12;startSize=8;endSize=8;exitX=0.5;exitY=1;exitDx=0;exitDy=0;" edge="1" parent="WIyWlLk6GJQsqaUBKTNV-1" source="-K-IWmo96tHVlK3cqagg-3" target="-K-IWmo96tHVlK3cqagg-17">
          <mxGeometry relative="1" as="geometry">
            <mxPoint x="160" y="209.31" as="sourcePoint" />
            <mxPoint x="215" y="209.31" as="targetPoint" />
          </mxGeometry>
        </mxCell>
        <mxCell id="-K-IWmo96tHVlK3cqagg-33" style="edgeStyle=none;curved=1;rounded=0;orthogonalLoop=1;jettySize=auto;html=1;entryX=0.5;entryY=0;entryDx=0;entryDy=0;fontSize=12;startSize=8;endSize=8;exitX=0.5;exitY=1;exitDx=0;exitDy=0;" edge="1" parent="WIyWlLk6GJQsqaUBKTNV-1" source="-K-IWmo96tHVlK3cqagg-5" target="-K-IWmo96tHVlK3cqagg-17">
          <mxGeometry relative="1" as="geometry">
            <mxPoint x="285" y="210" as="sourcePoint" />
            <mxPoint x="565" y="260" as="targetPoint" />
          </mxGeometry>
        </mxCell>
        <mxCell id="-K-IWmo96tHVlK3cqagg-34" style="edgeStyle=none;curved=1;rounded=0;orthogonalLoop=1;jettySize=auto;html=1;entryX=0.5;entryY=0;entryDx=0;entryDy=0;fontSize=12;startSize=8;endSize=8;exitX=0.5;exitY=1;exitDx=0;exitDy=0;" edge="1" parent="WIyWlLk6GJQsqaUBKTNV-1" source="-K-IWmo96tHVlK3cqagg-9" target="-K-IWmo96tHVlK3cqagg-17">
          <mxGeometry relative="1" as="geometry">
            <mxPoint x="414" y="190" as="sourcePoint" />
            <mxPoint x="524" y="240" as="targetPoint" />
          </mxGeometry>
        </mxCell>
        <mxCell id="-K-IWmo96tHVlK3cqagg-35" style="edgeStyle=none;curved=1;rounded=0;orthogonalLoop=1;jettySize=auto;html=1;fontSize=12;startSize=8;endSize=8;exitX=0.5;exitY=1;exitDx=0;exitDy=0;entryX=0.5;entryY=0;entryDx=0;entryDy=0;" edge="1" parent="WIyWlLk6GJQsqaUBKTNV-1" source="-K-IWmo96tHVlK3cqagg-17" target="-K-IWmo96tHVlK3cqagg-36">
          <mxGeometry relative="1" as="geometry">
            <mxPoint x="414" y="370" as="sourcePoint" />
            <mxPoint x="440" y="360" as="targetPoint" />
          </mxGeometry>
        </mxCell>
        <mxCell id="-K-IWmo96tHVlK3cqagg-36" value="" style="ellipse;html=1;shape=startState;fillColor=#000000;strokeColor=#ff0000;" vertex="1" parent="WIyWlLk6GJQsqaUBKTNV-1">
          <mxGeometry x="422.5" y="360" width="30" height="30" as="geometry" />
        </mxCell>
        <mxCell id="-K-IWmo96tHVlK3cqagg-37" value="@ret == 0" style="html=1;whiteSpace=wrap;" vertex="1" parent="WIyWlLk6GJQsqaUBKTNV-1">
          <mxGeometry x="450" y="320" width="95" height="20" as="geometry" />
        </mxCell>
        <mxCell id="-K-IWmo96tHVlK3cqagg-38" style="edgeStyle=none;curved=1;rounded=0;orthogonalLoop=1;jettySize=auto;html=1;fontSize=12;startSize=8;endSize=8;exitX=0.5;exitY=1;exitDx=0;exitDy=0;entryX=0.5;entryY=0;entryDx=0;entryDy=0;" edge="1" parent="WIyWlLk6GJQsqaUBKTNV-1" target="-K-IWmo96tHVlK3cqagg-39">
          <mxGeometry relative="1" as="geometry">
            <mxPoint x="168" y="300" as="sourcePoint" />
            <mxPoint x="170" y="350" as="targetPoint" />
          </mxGeometry>
        </mxCell>
        <mxCell id="-K-IWmo96tHVlK3cqagg-39" value="" style="ellipse;html=1;shape=startState;fillColor=#000000;strokeColor=#ff0000;" vertex="1" parent="WIyWlLk6GJQsqaUBKTNV-1">
          <mxGeometry x="152.5" y="350" width="30" height="30" as="geometry" />
        </mxCell>
        <mxCell id="bdgb9c--Yyla6WmIznCL-1" value="True" style="text;html=1;align=center;verticalAlign=middle;whiteSpace=wrap;rounded=0;" vertex="1" parent="WIyWlLk6GJQsqaUBKTNV-1">
          <mxGeometry x="205" y="190" width="60" height="30" as="geometry" />
        </mxCell>
        <mxCell id="bdgb9c--Yyla6WmIznCL-2" value="True" style="text;html=1;align=center;verticalAlign=middle;whiteSpace=wrap;rounded=0;" vertex="1" parent="WIyWlLk6GJQsqaUBKTNV-1">
          <mxGeometry x="354" y="200" width="60" height="30" as="geometry" />
        </mxCell>
        <mxCell id="bdgb9c--Yyla6WmIznCL-3" value="True" style="text;html=1;align=center;verticalAlign=middle;whiteSpace=wrap;rounded=0;" vertex="1" parent="WIyWlLk6GJQsqaUBKTNV-1">
          <mxGeometry x="550" y="140" width="60" height="30" as="geometry" />
        </mxCell>
        <mxCell id="bdgb9c--Yyla6WmIznCL-4" value="False" style="text;html=1;align=center;verticalAlign=middle;whiteSpace=wrap;rounded=0;" vertex="1" parent="WIyWlLk6GJQsqaUBKTNV-1">
          <mxGeometry x="210" y="140" width="60" height="30" as="geometry" />
        </mxCell>
        <mxCell id="bdgb9c--Yyla6WmIznCL-6" value="False" style="text;html=1;align=center;verticalAlign=middle;whiteSpace=wrap;rounded=0;" vertex="1" parent="WIyWlLk6GJQsqaUBKTNV-1">
          <mxGeometry x="380" y="140" width="60" height="30" as="geometry" />
        </mxCell>
        <mxCell id="bdgb9c--Yyla6WmIznCL-7" value="False" style="text;html=1;align=center;verticalAlign=middle;whiteSpace=wrap;rounded=0;" vertex="1" parent="WIyWlLk6GJQsqaUBKTNV-1">
          <mxGeometry x="460" y="210" width="60" height="30" as="geometry" />
        </mxCell>
        <mxCell id="bdgb9c--Yyla6WmIznCL-8" value="False" style="text;html=1;align=center;verticalAlign=middle;whiteSpace=wrap;rounded=0;" vertex="1" parent="WIyWlLk6GJQsqaUBKTNV-1">
          <mxGeometry x="532.5" y="200" width="60" height="30" as="geometry" />
        </mxCell>
        <mxCell id="YSeKyxXNUroe8IhAbYFH-5" value="" style="endArrow=classic;html=1;rounded=0;entryX=1;entryY=0;entryDx=0;entryDy=0;exitX=0;exitY=1;exitDx=0;exitDy=0;" edge="1" parent="WIyWlLk6GJQsqaUBKTNV-1" source="-K-IWmo96tHVlK3cqagg-11" target="-K-IWmo96tHVlK3cqagg-17">
          <mxGeometry width="50" height="50" relative="1" as="geometry">
            <mxPoint x="390" y="300" as="sourcePoint" />
            <mxPoint x="440" y="250" as="targetPoint" />
          </mxGeometry>
        </mxCell>
        <mxCell id="YSeKyxXNUroe8IhAbYFH-6" value="True" style="text;html=1;align=center;verticalAlign=middle;whiteSpace=wrap;rounded=0;" vertex="1" parent="WIyWlLk6GJQsqaUBKTNV-1">
          <mxGeometry x="592.5" y="220" width="60" height="30" as="geometry" />
        </mxCell>
      </root>
    </mxGraphModel>
  </diagram>
  <diagram id="DVLkjAP4PtY9sFH_ehXO" name="sp_user_login">
    <mxGraphModel grid="1" page="1" gridSize="10" guides="1" tooltips="1" connect="1" arrows="1" fold="1" pageScale="1" pageWidth="827" pageHeight="1169" math="0" shadow="0">
      <root>
        <mxCell id="0" />
        <mxCell id="1" parent="0" />
        <mxCell id="6oJXyT3HISRbU9gzNZgc-1" value="" style="ellipse;html=1;shape=startState;fillColor=#000000;strokeColor=#ff0000;" vertex="1" parent="1">
          <mxGeometry x="142.5" y="30" width="30" height="30" as="geometry" />
        </mxCell>
        <mxCell id="6oJXyT3HISRbU9gzNZgc-2" value="@ret = -1" style="html=1;whiteSpace=wrap;" vertex="1" parent="1">
          <mxGeometry x="110" y="90" width="95" height="20" as="geometry" />
        </mxCell>
        <mxCell id="6oJXyT3HISRbU9gzNZgc-3" value="" style="endArrow=classic;html=1;rounded=0;exitX=0.5;exitY=1;exitDx=0;exitDy=0;entryX=0.5;entryY=0;entryDx=0;entryDy=0;" edge="1" parent="1" source="6oJXyT3HISRbU9gzNZgc-1" target="6oJXyT3HISRbU9gzNZgc-2">
          <mxGeometry width="50" height="50" relative="1" as="geometry">
            <mxPoint x="155" y="50" as="sourcePoint" />
            <mxPoint x="205" as="targetPoint" />
          </mxGeometry>
        </mxCell>
        <mxCell id="6oJXyT3HISRbU9gzNZgc-5" value="" style="endArrow=classic;html=1;rounded=0;exitX=0.5;exitY=1;exitDx=0;exitDy=0;entryX=0.726;entryY=0.011;entryDx=0;entryDy=0;entryPerimeter=0;" edge="1" parent="1" source="6oJXyT3HISRbU9gzNZgc-2" target="6oJXyT3HISRbU9gzNZgc-28">
          <mxGeometry width="50" height="50" relative="1" as="geometry">
            <mxPoint x="168" y="70" as="sourcePoint" />
            <mxPoint x="160" y="150" as="targetPoint" />
          </mxGeometry>
        </mxCell>
        <mxCell id="6oJXyT3HISRbU9gzNZgc-6" value="fn_user_exists" style="shape=rhombus;perimeter=rhombusPerimeter;whiteSpace=wrap;html=1;align=center;" vertex="1" parent="1">
          <mxGeometry x="270" y="140" width="115" height="60" as="geometry" />
        </mxCell>
        <mxCell id="6oJXyT3HISRbU9gzNZgc-7" style="edgeStyle=none;curved=1;rounded=0;orthogonalLoop=1;jettySize=auto;html=1;entryX=0;entryY=0.5;entryDx=0;entryDy=0;fontSize=12;startSize=8;endSize=8;" edge="1" parent="1">
          <mxGeometry relative="1" as="geometry">
            <mxPoint x="215" y="170" as="sourcePoint" />
            <mxPoint x="270" y="170" as="targetPoint" />
          </mxGeometry>
        </mxCell>
        <mxCell id="6oJXyT3HISRbU9gzNZgc-8" value="fn_user_state" style="shape=rhombus;perimeter=rhombusPerimeter;whiteSpace=wrap;html=1;align=center;" vertex="1" parent="1">
          <mxGeometry x="440" y="140" width="115" height="60" as="geometry" />
        </mxCell>
        <mxCell id="6oJXyT3HISRbU9gzNZgc-9" style="edgeStyle=none;curved=1;rounded=0;orthogonalLoop=1;jettySize=auto;html=1;entryX=0;entryY=0.5;entryDx=0;entryDy=0;fontSize=12;startSize=8;endSize=8;" edge="1" parent="1">
          <mxGeometry relative="1" as="geometry">
            <mxPoint x="385" y="170" as="sourcePoint" />
            <mxPoint x="440" y="170" as="targetPoint" />
          </mxGeometry>
        </mxCell>
        <mxCell id="6oJXyT3HISRbU9gzNZgc-11" value="&lt;span style=&quot;font-size: 14.6667px; white-space-collapse: preserve;&quot; id=&quot;docs-internal-guid-7039932e-7fff-f9bc-8280-fbaf1240b976&quot;&gt;&lt;p style=&quot;line-height:1.38;margin-top:0pt;margin-bottom:0pt;&quot; dir=&quot;ltr&quot;&gt;&lt;font face=&quot;Arial, sans-serif&quot;&gt;set fn_generate_ssid()&lt;/font&gt;&lt;/p&gt;&lt;/span&gt;" style="whiteSpace=wrap;html=1;align=center;" vertex="1" parent="1">
          <mxGeometry x="592.5" y="260" width="205" height="40" as="geometry" />
        </mxCell>
        <mxCell id="6oJXyT3HISRbU9gzNZgc-12" style="edgeStyle=none;curved=1;rounded=0;orthogonalLoop=1;jettySize=auto;html=1;entryX=0;entryY=0.5;entryDx=0;entryDy=0;fontSize=12;startSize=8;endSize=8;" edge="1" parent="1">
          <mxGeometry relative="1" as="geometry">
            <mxPoint x="555" y="170" as="sourcePoint" />
            <mxPoint x="610" y="170" as="targetPoint" />
          </mxGeometry>
        </mxCell>
        <mxCell id="6oJXyT3HISRbU9gzNZgc-13" style="edgeStyle=none;curved=1;rounded=0;orthogonalLoop=1;jettySize=auto;html=1;entryX=0.5;entryY=0;entryDx=0;entryDy=0;fontSize=12;startSize=8;endSize=8;exitX=0.5;exitY=1;exitDx=0;exitDy=0;" edge="1" parent="1" source="4s6KrofSmX-jWKaoIn2d-1">
          <mxGeometry relative="1" as="geometry">
            <mxPoint x="667.5" y="210" as="sourcePoint" />
            <mxPoint x="667.5" y="260" as="targetPoint" />
          </mxGeometry>
        </mxCell>
        <mxCell id="6oJXyT3HISRbU9gzNZgc-14" value="if @ret == -1" style="html=1;whiteSpace=wrap;" vertex="1" parent="1">
          <mxGeometry x="620" y="220" width="95" height="20" as="geometry" />
        </mxCell>
        <mxCell id="6oJXyT3HISRbU9gzNZgc-15" value="? @ret" style="shape=rhombus;perimeter=rhombusPerimeter;whiteSpace=wrap;html=1;align=center;" vertex="1" parent="1">
          <mxGeometry x="380" y="250" width="115" height="60" as="geometry" />
        </mxCell>
        <mxCell id="6oJXyT3HISRbU9gzNZgc-16" style="edgeStyle=none;curved=1;rounded=0;orthogonalLoop=1;jettySize=auto;html=1;entryX=1;entryY=0.5;entryDx=0;entryDy=0;fontSize=12;startSize=8;endSize=8;exitX=0;exitY=0.5;exitDx=0;exitDy=0;" edge="1" parent="1" source="6oJXyT3HISRbU9gzNZgc-11" target="6oJXyT3HISRbU9gzNZgc-15">
          <mxGeometry relative="1" as="geometry">
            <mxPoint x="537.5" y="260" as="sourcePoint" />
            <mxPoint x="592.5" y="260" as="targetPoint" />
          </mxGeometry>
        </mxCell>
        <mxCell id="6oJXyT3HISRbU9gzNZgc-17" value="&lt;span style=&quot;font-size: 14.6667px; white-space-collapse: preserve;&quot; id=&quot;docs-internal-guid-7039932e-7fff-f9bc-8280-fbaf1240b976&quot;&gt;&lt;p style=&quot;line-height:1.38;margin-top:0pt;margin-bottom:0pt;&quot; dir=&quot;ltr&quot;&gt;&lt;font face=&quot;Arial, sans-serif&quot;&gt;create user error message&lt;/font&gt;&lt;/p&gt;&lt;/span&gt;" style="whiteSpace=wrap;html=1;align=center;" vertex="1" parent="1">
          <mxGeometry x="65" y="260" width="205" height="40" as="geometry" />
        </mxCell>
        <mxCell id="6oJXyT3HISRbU9gzNZgc-18" style="edgeStyle=none;curved=1;rounded=0;orthogonalLoop=1;jettySize=auto;html=1;fontSize=12;startSize=8;endSize=8;exitX=0;exitY=0.5;exitDx=0;exitDy=0;" edge="1" parent="1" source="6oJXyT3HISRbU9gzNZgc-15">
          <mxGeometry relative="1" as="geometry">
            <mxPoint x="368" y="279.66" as="sourcePoint" />
            <mxPoint x="270" y="280" as="targetPoint" />
          </mxGeometry>
        </mxCell>
        <mxCell id="6oJXyT3HISRbU9gzNZgc-19" value="@ret != 0" style="html=1;whiteSpace=wrap;" vertex="1" parent="1">
          <mxGeometry x="285" y="250" width="95" height="20" as="geometry" />
        </mxCell>
        <mxCell id="6oJXyT3HISRbU9gzNZgc-20" style="edgeStyle=none;curved=1;rounded=0;orthogonalLoop=1;jettySize=auto;html=1;entryX=0.5;entryY=0;entryDx=0;entryDy=0;fontSize=12;startSize=8;endSize=8;exitX=0.531;exitY=1.011;exitDx=0;exitDy=0;exitPerimeter=0;" edge="1" parent="1" source="6oJXyT3HISRbU9gzNZgc-28" target="6oJXyT3HISRbU9gzNZgc-15">
          <mxGeometry relative="1" as="geometry">
            <mxPoint x="157.5" y="200" as="sourcePoint" />
            <mxPoint x="215" y="209.31" as="targetPoint" />
          </mxGeometry>
        </mxCell>
        <mxCell id="6oJXyT3HISRbU9gzNZgc-21" style="edgeStyle=none;curved=1;rounded=0;orthogonalLoop=1;jettySize=auto;html=1;entryX=0.5;entryY=0;entryDx=0;entryDy=0;fontSize=12;startSize=8;endSize=8;exitX=0.5;exitY=1;exitDx=0;exitDy=0;" edge="1" parent="1" source="6oJXyT3HISRbU9gzNZgc-6" target="6oJXyT3HISRbU9gzNZgc-15">
          <mxGeometry relative="1" as="geometry">
            <mxPoint x="285" y="210" as="sourcePoint" />
            <mxPoint x="565" y="260" as="targetPoint" />
          </mxGeometry>
        </mxCell>
        <mxCell id="6oJXyT3HISRbU9gzNZgc-22" style="edgeStyle=none;curved=1;rounded=0;orthogonalLoop=1;jettySize=auto;html=1;entryX=0.5;entryY=0;entryDx=0;entryDy=0;fontSize=12;startSize=8;endSize=8;exitX=0.5;exitY=1;exitDx=0;exitDy=0;" edge="1" parent="1" source="6oJXyT3HISRbU9gzNZgc-8" target="6oJXyT3HISRbU9gzNZgc-15">
          <mxGeometry relative="1" as="geometry">
            <mxPoint x="414" y="190" as="sourcePoint" />
            <mxPoint x="524" y="240" as="targetPoint" />
          </mxGeometry>
        </mxCell>
        <mxCell id="6oJXyT3HISRbU9gzNZgc-23" style="edgeStyle=none;curved=1;rounded=0;orthogonalLoop=1;jettySize=auto;html=1;fontSize=12;startSize=8;endSize=8;exitX=0.5;exitY=1;exitDx=0;exitDy=0;entryX=0.5;entryY=0;entryDx=0;entryDy=0;" edge="1" parent="1" source="6oJXyT3HISRbU9gzNZgc-15" target="6oJXyT3HISRbU9gzNZgc-24">
          <mxGeometry relative="1" as="geometry">
            <mxPoint x="414" y="370" as="sourcePoint" />
            <mxPoint x="440" y="360" as="targetPoint" />
          </mxGeometry>
        </mxCell>
        <mxCell id="6oJXyT3HISRbU9gzNZgc-24" value="" style="ellipse;html=1;shape=startState;fillColor=#000000;strokeColor=#ff0000;" vertex="1" parent="1">
          <mxGeometry x="422.5" y="360" width="30" height="30" as="geometry" />
        </mxCell>
        <mxCell id="6oJXyT3HISRbU9gzNZgc-25" value="@ret == 0" style="html=1;whiteSpace=wrap;" vertex="1" parent="1">
          <mxGeometry x="450" y="320" width="95" height="20" as="geometry" />
        </mxCell>
        <mxCell id="6oJXyT3HISRbU9gzNZgc-26" style="edgeStyle=none;curved=1;rounded=0;orthogonalLoop=1;jettySize=auto;html=1;fontSize=12;startSize=8;endSize=8;exitX=0.5;exitY=1;exitDx=0;exitDy=0;entryX=0.5;entryY=0;entryDx=0;entryDy=0;" edge="1" parent="1" target="6oJXyT3HISRbU9gzNZgc-27">
          <mxGeometry relative="1" as="geometry">
            <mxPoint x="168" y="300" as="sourcePoint" />
            <mxPoint x="170" y="350" as="targetPoint" />
          </mxGeometry>
        </mxCell>
        <mxCell id="6oJXyT3HISRbU9gzNZgc-27" value="" style="ellipse;html=1;shape=startState;fillColor=#000000;strokeColor=#ff0000;" vertex="1" parent="1">
          <mxGeometry x="152.5" y="350" width="30" height="30" as="geometry" />
        </mxCell>
        <mxCell id="6oJXyT3HISRbU9gzNZgc-28" value="&lt;span style=&quot;font-size: 14.6667px; white-space-collapse: preserve;&quot; id=&quot;docs-internal-guid-7039932e-7fff-f9bc-8280-fbaf1240b976&quot;&gt;&lt;p style=&quot;line-height:1.38;margin-top:0pt;margin-bottom:0pt;&quot; dir=&quot;ltr&quot;&gt;&lt;font face=&quot;Arial, sans-serif&quot;&gt;check if user is &lt;/font&gt;&lt;/p&gt;&lt;p style=&quot;line-height:1.38;margin-top:0pt;margin-bottom:0pt;&quot; dir=&quot;ltr&quot;&gt;&lt;font face=&quot;Arial, sans-serif&quot;&gt;already logged in&lt;/font&gt;&lt;/p&gt;&lt;/span&gt;" style="whiteSpace=wrap;html=1;align=center;" vertex="1" parent="1">
          <mxGeometry x="10" y="150" width="205" height="40" as="geometry" />
        </mxCell>
        <mxCell id="4s6KrofSmX-jWKaoIn2d-1" value="fn_pwd_isvalid" style="shape=rhombus;perimeter=rhombusPerimeter;whiteSpace=wrap;html=1;align=center;" vertex="1" parent="1">
          <mxGeometry x="610" y="140" width="115" height="60" as="geometry" />
        </mxCell>
        <mxCell id="UhSosYfZnaBGInIHJ-aR-1" value="False" style="text;html=1;align=center;verticalAlign=middle;whiteSpace=wrap;rounded=0;" vertex="1" parent="1">
          <mxGeometry x="210" y="140" width="60" height="30" as="geometry" />
        </mxCell>
        <mxCell id="ru3f5W3Jg9d045ld8Uek-1" value="True" style="text;html=1;align=center;verticalAlign=middle;whiteSpace=wrap;rounded=0;" vertex="1" parent="1">
          <mxGeometry x="205" y="190" width="60" height="30" as="geometry" />
        </mxCell>
        <mxCell id="ru3f5W3Jg9d045ld8Uek-2" value="False" style="text;html=1;align=center;verticalAlign=middle;whiteSpace=wrap;rounded=0;" vertex="1" parent="1">
          <mxGeometry x="384" y="140" width="60" height="30" as="geometry" />
        </mxCell>
        <mxCell id="ru3f5W3Jg9d045ld8Uek-4" value="False" style="text;html=1;align=center;verticalAlign=middle;whiteSpace=wrap;rounded=0;" vertex="1" parent="1">
          <mxGeometry x="550" y="140" width="60" height="30" as="geometry" />
        </mxCell>
        <mxCell id="ru3f5W3Jg9d045ld8Uek-5" value="True" style="text;html=1;align=center;verticalAlign=middle;whiteSpace=wrap;rounded=0;" vertex="1" parent="1">
          <mxGeometry x="354" y="200" width="60" height="30" as="geometry" />
        </mxCell>
        <mxCell id="ru3f5W3Jg9d045ld8Uek-7" value="True" style="text;html=1;align=center;verticalAlign=middle;whiteSpace=wrap;rounded=0;" vertex="1" parent="1">
          <mxGeometry x="430" y="200" width="60" height="30" as="geometry" />
        </mxCell>
        <mxCell id="ru3f5W3Jg9d045ld8Uek-8" value="False" style="text;html=1;align=center;verticalAlign=middle;whiteSpace=wrap;rounded=0;" vertex="1" parent="1">
          <mxGeometry x="560" y="190" width="60" height="30" as="geometry" />
        </mxCell>
      </root>
    </mxGraphModel>
  </diagram>
  <diagram id="4crSNIAiOY3CySgxxD5-" name="sp_user_logout">
    <mxGraphModel grid="1" page="1" gridSize="10" guides="1" tooltips="1" connect="1" arrows="1" fold="1" pageScale="1" pageWidth="827" pageHeight="1169" math="0" shadow="0">
      <root>
        <mxCell id="0" />
        <mxCell id="1" parent="0" />
        <mxCell id="GbQrXFKAOZQYacKeOby7-1" value="" style="ellipse;html=1;shape=startState;fillColor=#000000;strokeColor=#ff0000;" vertex="1" parent="1">
          <mxGeometry x="142.5" y="30" width="30" height="30" as="geometry" />
        </mxCell>
        <mxCell id="GbQrXFKAOZQYacKeOby7-2" value="@ret = -1" style="html=1;whiteSpace=wrap;" vertex="1" parent="1">
          <mxGeometry x="110" y="90" width="95" height="20" as="geometry" />
        </mxCell>
        <mxCell id="GbQrXFKAOZQYacKeOby7-3" value="" style="endArrow=classic;html=1;rounded=0;exitX=0.5;exitY=1;exitDx=0;exitDy=0;entryX=0.5;entryY=0;entryDx=0;entryDy=0;" edge="1" parent="1" source="GbQrXFKAOZQYacKeOby7-1" target="GbQrXFKAOZQYacKeOby7-2">
          <mxGeometry width="50" height="50" relative="1" as="geometry">
            <mxPoint x="155" y="50" as="sourcePoint" />
            <mxPoint x="205" as="targetPoint" />
          </mxGeometry>
        </mxCell>
        <mxCell id="GbQrXFKAOZQYacKeOby7-4" value="" style="endArrow=classic;html=1;rounded=0;exitX=0.5;exitY=1;exitDx=0;exitDy=0;entryX=0.726;entryY=0.011;entryDx=0;entryDy=0;entryPerimeter=0;" edge="1" parent="1" source="GbQrXFKAOZQYacKeOby7-2" target="GbQrXFKAOZQYacKeOby7-26">
          <mxGeometry width="50" height="50" relative="1" as="geometry">
            <mxPoint x="168" y="70" as="sourcePoint" />
            <mxPoint x="160" y="150" as="targetPoint" />
          </mxGeometry>
        </mxCell>
        <mxCell id="GbQrXFKAOZQYacKeOby7-6" style="edgeStyle=none;curved=1;rounded=0;orthogonalLoop=1;jettySize=auto;html=1;entryX=0;entryY=0.5;entryDx=0;entryDy=0;fontSize=12;startSize=8;endSize=8;" edge="1" parent="1">
          <mxGeometry relative="1" as="geometry">
            <mxPoint x="215" y="170" as="sourcePoint" />
            <mxPoint x="270" y="170" as="targetPoint" />
          </mxGeometry>
        </mxCell>
        <mxCell id="GbQrXFKAOZQYacKeOby7-9" value="&lt;span style=&quot;font-size: 14.6667px; white-space-collapse: preserve;&quot; id=&quot;docs-internal-guid-7039932e-7fff-f9bc-8280-fbaf1240b976&quot;&gt;&lt;p style=&quot;line-height:1.38;margin-top:0pt;margin-bottom:0pt;&quot; dir=&quot;ltr&quot;&gt;&lt;font face=&quot;Arial, sans-serif&quot;&gt;set fn_generate_ssid()&lt;/font&gt;&lt;/p&gt;&lt;/span&gt;" style="whiteSpace=wrap;html=1;align=center;" vertex="1" parent="1">
          <mxGeometry x="592.5" y="260" width="205" height="40" as="geometry" />
        </mxCell>
        <mxCell id="GbQrXFKAOZQYacKeOby7-11" style="edgeStyle=none;curved=1;rounded=0;orthogonalLoop=1;jettySize=auto;html=1;entryX=0.5;entryY=0;entryDx=0;entryDy=0;fontSize=12;startSize=8;endSize=8;exitX=0.38;exitY=0.981;exitDx=0;exitDy=0;exitPerimeter=0;" edge="1" parent="1" source="z9YncBbP-qBEjUXS0Meb-2">
          <mxGeometry relative="1" as="geometry">
            <mxPoint x="667.5" y="200" as="sourcePoint" />
            <mxPoint x="667.5" y="260" as="targetPoint" />
          </mxGeometry>
        </mxCell>
        <mxCell id="GbQrXFKAOZQYacKeOby7-12" value="if @ret == -1" style="html=1;whiteSpace=wrap;" vertex="1" parent="1">
          <mxGeometry x="620" y="220" width="95" height="20" as="geometry" />
        </mxCell>
        <mxCell id="GbQrXFKAOZQYacKeOby7-13" value="? @ret" style="shape=rhombus;perimeter=rhombusPerimeter;whiteSpace=wrap;html=1;align=center;" vertex="1" parent="1">
          <mxGeometry x="380" y="250" width="115" height="60" as="geometry" />
        </mxCell>
        <mxCell id="GbQrXFKAOZQYacKeOby7-14" style="edgeStyle=none;curved=1;rounded=0;orthogonalLoop=1;jettySize=auto;html=1;entryX=1;entryY=0.5;entryDx=0;entryDy=0;fontSize=12;startSize=8;endSize=8;exitX=0;exitY=0.5;exitDx=0;exitDy=0;" edge="1" parent="1" source="GbQrXFKAOZQYacKeOby7-9" target="GbQrXFKAOZQYacKeOby7-13">
          <mxGeometry relative="1" as="geometry">
            <mxPoint x="537.5" y="260" as="sourcePoint" />
            <mxPoint x="592.5" y="260" as="targetPoint" />
          </mxGeometry>
        </mxCell>
        <mxCell id="GbQrXFKAOZQYacKeOby7-15" value="&lt;span style=&quot;font-size: 14.6667px; white-space-collapse: preserve;&quot; id=&quot;docs-internal-guid-7039932e-7fff-f9bc-8280-fbaf1240b976&quot;&gt;&lt;p style=&quot;line-height:1.38;margin-top:0pt;margin-bottom:0pt;&quot; dir=&quot;ltr&quot;&gt;&lt;font face=&quot;Arial, sans-serif&quot;&gt;create user error message&lt;/font&gt;&lt;/p&gt;&lt;/span&gt;" style="whiteSpace=wrap;html=1;align=center;" vertex="1" parent="1">
          <mxGeometry x="65" y="260" width="205" height="40" as="geometry" />
        </mxCell>
        <mxCell id="GbQrXFKAOZQYacKeOby7-16" style="edgeStyle=none;curved=1;rounded=0;orthogonalLoop=1;jettySize=auto;html=1;fontSize=12;startSize=8;endSize=8;exitX=0;exitY=0.5;exitDx=0;exitDy=0;" edge="1" parent="1" source="GbQrXFKAOZQYacKeOby7-13">
          <mxGeometry relative="1" as="geometry">
            <mxPoint x="368" y="279.66" as="sourcePoint" />
            <mxPoint x="270" y="280" as="targetPoint" />
          </mxGeometry>
        </mxCell>
        <mxCell id="GbQrXFKAOZQYacKeOby7-17" value="@ret != 0" style="html=1;whiteSpace=wrap;" vertex="1" parent="1">
          <mxGeometry x="285" y="250" width="95" height="20" as="geometry" />
        </mxCell>
        <mxCell id="GbQrXFKAOZQYacKeOby7-18" style="edgeStyle=none;curved=1;rounded=0;orthogonalLoop=1;jettySize=auto;html=1;entryX=0.5;entryY=0;entryDx=0;entryDy=0;fontSize=12;startSize=8;endSize=8;exitX=0.531;exitY=1.011;exitDx=0;exitDy=0;exitPerimeter=0;" edge="1" parent="1" source="GbQrXFKAOZQYacKeOby7-26" target="GbQrXFKAOZQYacKeOby7-13">
          <mxGeometry relative="1" as="geometry">
            <mxPoint x="157.5" y="200" as="sourcePoint" />
            <mxPoint x="215" y="209.31" as="targetPoint" />
          </mxGeometry>
        </mxCell>
        <mxCell id="GbQrXFKAOZQYacKeOby7-21" style="edgeStyle=none;curved=1;rounded=0;orthogonalLoop=1;jettySize=auto;html=1;fontSize=12;startSize=8;endSize=8;exitX=0.5;exitY=1;exitDx=0;exitDy=0;entryX=0.5;entryY=0;entryDx=0;entryDy=0;" edge="1" parent="1" source="GbQrXFKAOZQYacKeOby7-13" target="GbQrXFKAOZQYacKeOby7-22">
          <mxGeometry relative="1" as="geometry">
            <mxPoint x="414" y="370" as="sourcePoint" />
            <mxPoint x="440" y="360" as="targetPoint" />
          </mxGeometry>
        </mxCell>
        <mxCell id="GbQrXFKAOZQYacKeOby7-22" value="" style="ellipse;html=1;shape=startState;fillColor=#000000;strokeColor=#ff0000;" vertex="1" parent="1">
          <mxGeometry x="422.5" y="360" width="30" height="30" as="geometry" />
        </mxCell>
        <mxCell id="GbQrXFKAOZQYacKeOby7-23" value="@ret == 0" style="html=1;whiteSpace=wrap;" vertex="1" parent="1">
          <mxGeometry x="450" y="320" width="95" height="20" as="geometry" />
        </mxCell>
        <mxCell id="GbQrXFKAOZQYacKeOby7-24" style="edgeStyle=none;curved=1;rounded=0;orthogonalLoop=1;jettySize=auto;html=1;fontSize=12;startSize=8;endSize=8;exitX=0.5;exitY=1;exitDx=0;exitDy=0;entryX=0.5;entryY=0;entryDx=0;entryDy=0;" edge="1" parent="1" target="GbQrXFKAOZQYacKeOby7-25">
          <mxGeometry relative="1" as="geometry">
            <mxPoint x="168" y="300" as="sourcePoint" />
            <mxPoint x="170" y="350" as="targetPoint" />
          </mxGeometry>
        </mxCell>
        <mxCell id="GbQrXFKAOZQYacKeOby7-25" value="" style="ellipse;html=1;shape=startState;fillColor=#000000;strokeColor=#ff0000;" vertex="1" parent="1">
          <mxGeometry x="152.5" y="350" width="30" height="30" as="geometry" />
        </mxCell>
        <mxCell id="GbQrXFKAOZQYacKeOby7-26" value="&lt;span style=&quot;font-size: 14.6667px; white-space-collapse: preserve;&quot; id=&quot;docs-internal-guid-7039932e-7fff-f9bc-8280-fbaf1240b976&quot;&gt;&lt;p style=&quot;line-height:1.38;margin-top:0pt;margin-bottom:0pt;&quot; dir=&quot;ltr&quot;&gt;&lt;font face=&quot;Arial, sans-serif&quot;&gt;check if user is &lt;/font&gt;&lt;/p&gt;&lt;p style=&quot;line-height:1.38;margin-top:0pt;margin-bottom:0pt;&quot; dir=&quot;ltr&quot;&gt;&lt;font face=&quot;Arial, sans-serif&quot;&gt;logged in&lt;/font&gt;&lt;/p&gt;&lt;/span&gt;" style="whiteSpace=wrap;html=1;align=center;" vertex="1" parent="1">
          <mxGeometry x="10" y="150" width="205" height="40" as="geometry" />
        </mxCell>
        <mxCell id="z9YncBbP-qBEjUXS0Meb-7" value="" style="edgeStyle=orthogonalEdgeStyle;rounded=0;orthogonalLoop=1;jettySize=auto;html=1;" edge="1" parent="1" source="z9YncBbP-qBEjUXS0Meb-1" target="z9YncBbP-qBEjUXS0Meb-2">
          <mxGeometry relative="1" as="geometry" />
        </mxCell>
        <mxCell id="z9YncBbP-qBEjUXS0Meb-1" value="&lt;span style=&quot;font-size: 14.6667px; white-space-collapse: preserve;&quot; id=&quot;docs-internal-guid-7039932e-7fff-f9bc-8280-fbaf1240b976&quot;&gt;&lt;p style=&quot;line-height:1.38;margin-top:0pt;margin-bottom:0pt;&quot; dir=&quot;ltr&quot;&gt;&lt;font face=&quot;Arial, sans-serif&quot;&gt;get conn info &amp;amp; insert into USER_CONNECTIONS_HISTORY&lt;/font&gt;&lt;/p&gt;&lt;/span&gt;" style="whiteSpace=wrap;html=1;align=center;" vertex="1" parent="1">
          <mxGeometry x="270" y="150" width="270" height="40" as="geometry" />
        </mxCell>
        <mxCell id="z9YncBbP-qBEjUXS0Meb-2" value="&lt;font face=&quot;Arial, sans-serif&quot;&gt;del from USER_CONNECTIONS table&lt;/font&gt;" style="whiteSpace=wrap;html=1;align=center;" vertex="1" parent="1">
          <mxGeometry x="590" y="150" width="205" height="40" as="geometry" />
        </mxCell>
        <mxCell id="SlVOrO98zQtNWio-rtyk-1" value="False" style="text;html=1;align=center;verticalAlign=middle;whiteSpace=wrap;rounded=0;" vertex="1" parent="1">
          <mxGeometry x="200" y="210" width="60" height="30" as="geometry" />
        </mxCell>
        <mxCell id="8AZf9872be_eBD5FRMhS-1" value="True" style="text;html=1;align=center;verticalAlign=middle;whiteSpace=wrap;rounded=0;" vertex="1" parent="1">
          <mxGeometry x="210" y="140" width="60" height="30" as="geometry" />
        </mxCell>
        <mxCell id="8AZf9872be_eBD5FRMhS-2" value="True" style="text;html=1;align=center;verticalAlign=middle;whiteSpace=wrap;rounded=0;" vertex="1" parent="1">
          <mxGeometry x="532.5" y="140" width="60" height="30" as="geometry" />
        </mxCell>
        <mxCell id="8AZf9872be_eBD5FRMhS-3" value="True" style="text;html=1;align=center;verticalAlign=middle;whiteSpace=wrap;rounded=0;" vertex="1" parent="1">
          <mxGeometry x="520" y="250" width="60" height="30" as="geometry" />
        </mxCell>
      </root>
    </mxGraphModel>
  </diagram>
</mxfile>
